<?xml version="1.0" encoding="UTF-8" standalone="no"?>
<!-- Created with Inkscape (http://www.inkscape.org/) -->

<svg
   width="72mm"
   height="21mm"
   viewBox="0 0 72 21"
   version="1.1"
   id="svg5646"
   inkscape:version="1.2 (dc2aedaf03, 2022-05-15)"
   sodipodi:docname="logo.beyRamca.svg"
   xmlns:inkscape="http://www.inkscape.org/namespaces/inkscape"
   xmlns:sodipodi="http://sodipodi.sourceforge.net/DTD/sodipodi-0.dtd"
   xmlns:xlink="http://www.w3.org/1999/xlink"
   xmlns="http://www.w3.org/2000/svg"
   xmlns:svg="http://www.w3.org/2000/svg">
  <sodipodi:namedview
     id="namedview5648"
     pagecolor="#ffffff"
     bordercolor="#000000"
     borderopacity="0.25"
     inkscape:showpageshadow="2"
     inkscape:pageopacity="0.0"
     inkscape:pagecheckerboard="0"
     inkscape:deskcolor="#d1d1d1"
     inkscape:document-units="cm"
     showgrid="false"
     inkscape:zoom="1.4912879"
     inkscape:cx="116.67767"
     inkscape:cy="119.35992"
     inkscape:window-width="1920"
     inkscape:window-height="1017"
     inkscape:window-x="-8"
     inkscape:window-y="-8"
     inkscape:window-maximized="1"
     inkscape:current-layer="layer1" />
  <defs
     id="defs5643">
    <linearGradient
       inkscape:collect="always"
       xlink:href="#linearGradient6026"
       id="linearGradient6028"
       x1="175.75482"
       y1="253.19337"
       x2="371.72607"
       y2="6.8008733"
       gradientUnits="userSpaceOnUse" />
    <linearGradient
       inkscape:collect="always"
       id="linearGradient6026">
      <stop
         style="stop-color:#186b9d;stop-opacity:1;"
         offset="0"
         id="stop6022" />
      <stop
         style="stop-color:#0760b1;stop-opacity:0;"
         offset="1"
         id="stop6024" />
    </linearGradient>
    <rect
       x="521.57434"
       y="337.60083"
       width="1050.7352"
       height="402.08636"
       id="rect3997" />
  </defs>
  <g
     inkscape:label="Vrstva 1"
     inkscape:groupmode="layer"
     id="layer1">
    <g
       id="g20401"
       transform="matrix(0.21063696,0,0,0.21063696,-7.8195494,-21.03519)">
      <g
         id="g2263"
         transform="matrix(0.42315244,0,0,0.41193826,8.2277212,90.840695)">
        <path
           style="fill:#97d72e;fill-opacity:1;stroke:none;stroke-width:0.264583;stroke-opacity:1"
           d="M 269.67741,59.612902 C 216.50833,28.538845 190.28386,33.693261 164.72836,39.313509 c -2.12172,0.466616 -6.7227,3.065474 -8.85024,3.518046 -43.9015,22.85132 -71.307178,55.045512 -71.781346,105.491025 3.280451,33.49439 12.155207,68.14056 52.516126,93.32258 29.8297,18.3887 59.19167,19.0039 88.35484,12.06451 25.08815,-7.04276 36.378,-19.76718 50.74193,-31.2258 l 41.87097,-35.83871 c 22.90472,7.51696 39.55315,-19.68478 54.64516,-33.70968 l -8.87097,-8.51613 23.2939,-21.20791 c 1.00708,-5.81846 -2.337,-4.36334 -4.69713,-4.56986 l -22.60577,20.18461 -8.68277,-9.81188 22.43909,-19.99642 c 0.72623,-4.45383 -0.55581,-6.38113 -5.00897,-4.31895 l -21.75092,19.8925 -8.66126,-9.18645 c -17.73216,15.90779 -43.10485,32.86386 -37.84229,51.3692 l -53.6649,47.02689 c -19.56338,14.47654 -41.81961,21.57977 -68.39962,16.84408 -30.05824,-5.64734 -45.24777,-22.4421 -56.06452,-42.40323 -14.56194,-43.0703 -9.93827,-53.5636 -5.67742,-65.64516 3.56708,-9.46459 6.83366,-18.75748 18.45162,-32.822577 10.01834,-10.611188 21.33927,-17.500702 33,-23.419356 -22.4973,17.035644 -35.32036,37.735773 -42.22581,60.677423 -4.53116,19.40829 1.29846,35.85636 6.3871,52.51613 l 7.45161,12.41935 c 14.15161,-11.63239 25.44795,-25.04933 35.83871,-39.03226 l 24.83871,-40.09677 c 7.56096,-13.374526 16.34257,-25.528394 27.67742,-35.129033 9.85664,-7.22621 20.09568,-14.344193 42.2258,-18.096775 z"
           id="path1821"
           sodipodi:nodetypes="cscccccccccccccccccccccccccccccc" />
        <path
           style="fill:url(#linearGradient6028);fill-opacity:1;stroke:none;stroke-width:0.264583;stroke-opacity:1"
           d="m 148.28713,199.97436 c 15.73689,11.44333 32.52065,21.71558 61.97449,17.81453 14.87498,-4.03549 29.72875,-8.39627 43.90905,-23.08362 6.70254,-9.82195 14.52756,-18.08971 18.3746,-31.86542 l 2.70175,-14.55272 c -2.41051,4.77483 -4.11005,9.66816 -7.80862,14.22832 1.59541,-7.89822 3.80681,-15.45971 7.77817,-23.38019 -2.21229,-18.61894 -7.14224,-29.40862 -12.61893,-40.099751 -3.81115,-6.795024 -9.85407,-11.762348 -15.45242,-16.925588 -1.57589,-0.07207 -2.8695,-0.366935 -4.44538,0.582718 -0.19453,0.895109 -0.54308,1.761702 0.19802,2.73478 1.74725,1.513851 2.92637,3.203975 4.09048,4.96774 -0.51135,1.204174 -0.53145,2.338169 -0.46415,3.459679 0.34355,0.41962 0.82483,0.5982 1.50269,0.432784 0.41771,-0.765228 0.33852,-1.530457 0.36021,-2.295686 0.82796,0.249502 1.65592,0.06722 2.48388,-0.08871 0.0148,-1.557383 -0.31842,-2.65071 -0.53226,-3.903226 4.04901,-0.957775 3.16018,2.033026 3.76793,3.751787 0.28671,0.886606 0.83476,1.686102 0.66755,2.724017 0.47312,-0.563187 0.94624,-0.533564 1.41936,-0.620966 0.6432,-0.394939 1.01606,0.129246 1.24193,1.153226 0.43926,0.650537 0.30584,1.301074 0.26613,1.951611 1.26727,1.518398 1.94452,3.101265 2.46235,5.285845 -2.24156,0.22293 -4.21471,-0.98275 -5.99606,-1.85181 -0.86331,-0.421184 -1.9557,0.23351 -3.01559,1.02297 1.42797,0.0709 3.5791,-0.68174 3.2778,1.74729 0.25568,1.13037 -0.40014,2.1543 0.95961,2.60142 0.95407,0.31373 0.75977,1.00281 1.08072,1.18896 -1.29419,-0.16513 -2.61443,0.1811 -3.35578,-0.42996 -1.55408,-1.28098 -2.82625,-1.3541 -3.95554,-0.50585 -2.41947,1.81735 -1.80369,-0.0421 -4.49245,-0.0624 -0.82125,0.6918 -1.04722,0.38914 -1.95699,3.60036 -3.27576,-0.41023 -5.77666,-0.26353 -6.3871,1.24194 -0.23832,5.5208 -3.39776,7.36716 -2.87453,1.39337 0.62293,-3.62349 -1.29702,-6.16949 -4.07887,-6.35464 -0.83281,-0.3758 -1.59152,-0.68422 -2.14568,-1.64058 -1.38121,-2.38366 -3.98551,-0.77714 -4.66376,1.03697 -0.94621,2.5308 -3.50738,5.28522 -5.22103,7.96004 1.35052,0.0121 2.33456,0.48233 3.01613,1.33064 0.82796,0.14878 1.65591,-0.0531 2.48387,-1.15322 2.11192,-0.45927 2.22689,0.69805 2.66129,1.59677 -0.67628,2.19629 -3.32403,2.67128 -4.89518,4.12184 2.03831,1.38849 4.43385,2.69579 4.71776,4.483 -1.70745,1.00059 -2.25463,2.50287 -3.22937,3.99193 l 0.0358,3.10484 c 1.3487,0.55685 2.54109,0.64477 3.72581,0.70968 -0.0866,0.82243 -0.0341,1.92185 0.12545,2.08784 0.93983,1.00404 1.36092,0.0628 2.00358,-0.0475 4.20839,-0.86752 8.50868,1.2857 12.63351,6.76884 0.18947,1.0863 0.7136,2.24772 -0.44892,2.30015 1.07461,1.52999 1.72351,3.17823 1.29928,5.12456 l 3.63709,2.12903 c 0.47397,2.34242 -0.75027,4.56354 -1.33064,6.83065 l -2.23296,0.46953 c 2.31132,-0.0612 3.25638,1.12509 3.65231,2.81273 0.3567,1.05279 -0.13122,1.87259 2.48388,3.54839 0.35086,1.06131 1.18973,1.85643 0.70967,3.37096 0.55531,1.79781 -0.85525,2.32358 -1.59677,3.28226 -2.24731,0.96883 -4.49462,1.56293 -6.74193,1.8629 -2.28129,2.85071 -5.9456,3.56404 -9.04839,5.14516 -1.74398,-0.91655 -7.01054,-0.72034 -8.33626,-0.15143 l 0.0863,0.0627 c -5.24065,2.44716 -11.07806,3.34182 -12.96776,0.0295 -0.45536,1.87656 -1.58137,3.02539 -5.9274,0.68016 -1.95849,0.65692 -2.58319,-0.42201 -3.4337,-0.79393 0.21974,0.92456 0.23582,1.78803 -4.46147,1.23748 -0.44491,0.64699 -1.83973,0.88236 -4.79032,0.44355 l 0.26613,2.48387 c -2.69747,-0.87192 -3.90539,-2.08759 -4.43548,-3.45968 -0.0534,-1.26959 1.06355,-2.14907 3.01613,-2.75 l 2.83871,-0.44355 c 0.80242,-1.52368 1.70927,-2.37894 2.92742,-1.24193 l 1.06451,-1.8629 c 1.4578,-1.16329 2.49767,-0.73845 3.54839,-0.35484 0.85992,0.17198 11.70978,-8.12424 12.06452,-8.25 1.04645,-0.37098 -1.13896,-7.36125 -1.69087,-7.27235 -0.41162,-3.58947 1.90386,-5.74524 1.42473,-8.51798 -0.4413,-0.80397 -0.0164,-1.68668 0.44355,-2.57258 0.65689,-0.2957 1.32224,-0.59139 2.30646,-0.88709 -0.28713,-0.62152 -0.81336,-1.34551 -1.68549,-2.21774 0.24282,-0.23298 0.51379,-0.44988 1.33065,-0.35484 l 3.01613,-1.41936 c 1.75536,0.23204 3.17766,-0.31305 4.70161,-0.62097 1.08954,-1.14254 2.13216,-2.27837 2.64607,-3.33868 l 0.0152,-3.22583 c -1.33199,-0.0172 -1.84115,-0.81175 -1.95161,0.62097 h -1.15323 l -0.26613,-1.68549 c -1.85478,-1.07505 -0.89501,-1.26444 -1.15322,-3.44984 -1.26034,0.25028 -1.29464,-0.80722 -1.33065,-1.8629 1.44089,0.97044 0.68082,-2.09461 0.62097,-3.82436 -2.85038,-1.20372 -3.01319,-4.39823 -3.72581,-7.18548 -10.52863,15.15833 -19.8835,31.09916 -29.00806,47.19353 -11.18189,15.38977 -22.86923,29.97081 -38.71287,37.90178 z"
           id="path1879"
           sodipodi:nodetypes="cccccccccccccccccccccccsccscsscccccsscccccccccccccccccccccccccccccccccccccsccccccccccccccccccc" />
      </g>
      <text
         xml:space="preserve"
         transform="matrix(0.26458333,0,0,0.26458333,38.955304,21.892792)"
         id="text3995"
         style="white-space:pre;shape-inside:url(#rect3997);shape-padding:10.729;display:inline;fill:#97d72e;stroke-width:1.00157;stroke-dasharray:none"><tspan
           x="532.30273"
           y="581.92411"
           id="tspan317"><tspan
             style="font-size:266.667px;font-family:Constantia;-inkscape-font-specification:'Constantia, Normal'"
             id="tspan315">world</tspan></tspan></text>
    </g>
  </g>
</svg>
